# xmcd CD database file
#
# Track frame offsets:
#	150
#	18861
#	33489
#	56574
#	74426
#	90282
#	108848
#	125611
#	142318
#	157293
#	179768
#	204302
#
# Disc length: 2968 seconds
#
# Revision: 0
# Processed by: cddbd v1.5.2PL0 Copyright (c) Steve Scherf et al.
# Submitted via: CDex 1.51
#
DISCID=ad0b960c
DTITLE=Jason Boland - Dark and Dirty Mile
DYEAR=2013
DGENRE=Country
TTITLE0=Dark and Dirty Mile 
TTITLE1=Electric Bill
TTITLE2=Lucky I Guess
TTITLE3=Only One
TTITLE4=They Took It Away
TTITLE5=Ludlow
TTITLE6=Nine Times Out Of Ten
TTITLE7=Blue Diamond
TTITLE8=Green Screen
TTITLE9=Spend All Your Time
TTITLE10=See You When I See You
TTITLE11=Jason Boland - Dark and Dirty Mile (original cut)
EXTD=YEAR: 2013
EXTT0=
EXTT1=
EXTT2=
EXTT3=
EXTT4=
EXTT5=
EXTT6=
EXTT7=
EXTT8=
EXTT9=
EXTT10=
EXTT11=
PLAYORDER=
